{
  "asset": {
    "version": "2.0",
    "generator": "MetalThrone gen_gltf.py"
  },
  "scene": 0,
  "scenes": [
    {
      "nodes": [
        0,
        1,
        2,
        3,
        4,
        5,
        6,
        7
      ]
    }
  ],
  "nodes": [
    {
      "name": "sub_body",
      "mesh": 0,
      "translation": [
        0,
        0,
        0.0
      ],
      "rotation": [
        0.7071067811865475,
        0,
        0,
        0.7071067811865476
      ],
      "scale": [
        1,
        1,
        1
      ]
    },
    {
      "name": "sub_nose",
      "mesh": 1,
      "translation": [
        0,
        0,
        4.2
      ],
      "rotation": [
        0.7071067811865475,
        0,
        0,
        0.7071067811865476
      ],
      "scale": [
        1,
        1,
        1
      ]
    },
    {
      "name": "sub_tail",
      "mesh": 2,
      "translation": [
        0,
        0,
        -4.1
      ],
      "rotation": [
        -0.7071067811865475,
        0,
        0,
        0.7071067811865476
      ],
      "scale": [
        1,
        1,
        1
      ]
    },
    {
      "name": "sub_tower",
      "mesh": 3,
      "translation": [
        0,
        0.85,
        -0.5
      ],
      "rotation": [
        0,
        0,
        0,
        1
      ],
      "scale": [
        1,
        1,
        1
      ]
    },
    {
      "name": "sub_periscope",
      "mesh": 4,
      "translation": [
        0,
        1.8,
        -0.4
      ],
      "rotation": [
        0,
        0,
        0,
        1
      ],
      "scale": [
        1,
        1,
        1
      ]
    },
    {
      "name": "sub_plane_F",
      "mesh": 5,
      "translation": [
        0,
        0.0,
        2.8
      ],
      "rotation": [
        0,
        0,
        0,
        1
      ],
      "scale": [
        1,
        1,
        1
      ]
    },
    {
      "name": "sub_plane_A",
      "mesh": 6,
      "translation": [
        0,
        0.0,
        -3.8
      ],
      "rotation": [
        0,
        0,
        0,
        1
      ],
      "scale": [
        1,
        1,
        1
      ]
    },
    {
      "name": "sub_rudder",
      "mesh": 7,
      "translation": [
        0,
        -0.3,
        -4.6
      ],
      "rotation": [
        0,
        0,
        0,
        1
      ],
      "scale": [
        1,
        1,
        1
      ]
    }
  ],
  "meshes": [
    {
      "name": "sub_body",
      "primitives": [
        {
          "attributes": {
            "POSITION": 0,
            "NORMAL": 1
          },
          "indices": 2,
          "material": 0,
          "mode": 4
        }
      ]
    },
    {
      "name": "sub_nose",
      "primitives": [
        {
          "attributes": {
            "POSITION": 3,
            "NORMAL": 4
          },
          "indices": 5,
          "material": 1,
          "mode": 4
        }
      ]
    },
    {
      "name": "sub_tail",
      "primitives": [
        {
          "attributes": {
            "POSITION": 6,
            "NORMAL": 7
          },
          "indices": 8,
          "material": 2,
          "mode": 4
        }
      ]
    },
    {
      "name": "sub_tower",
      "primitives": [
        {
          "attributes": {
            "POSITION": 9,
            "NORMAL": 10
          },
          "indices": 11,
          "material": 3,
          "mode": 4
        }
      ]
    },
    {
      "name": "sub_periscope",
      "primitives": [
        {
          "attributes": {
            "POSITION": 12,
            "NORMAL": 13
          },
          "indices": 14,
          "material": 4,
          "mode": 4
        }
      ]
    },
    {
      "name": "sub_plane_F",
      "primitives": [
        {
          "attributes": {
            "POSITION": 15,
            "NORMAL": 16
          },
          "indices": 17,
          "material": 5,
          "mode": 4
        }
      ]
    },
    {
      "name": "sub_plane_A",
      "primitives": [
        {
          "attributes": {
            "POSITION": 18,
            "NORMAL": 19
          },
          "indices": 20,
          "material": 6,
          "mode": 4
        }
      ]
    },
    {
      "name": "sub_rudder",
      "primitives": [
        {
          "attributes": {
            "POSITION": 21,
            "NORMAL": 22
          },
          "indices": 23,
          "material": 7,
          "mode": 4
        }
      ]
    }
  ],
  "materials": [
    {
      "name": "sub_body_mat",
      "pbrMetallicRoughness": {
        "baseColorFactor": [
          0.12,
          0.18,
          0.22,
          1.0
        ],
        "metallicFactor": 0.1,
        "roughnessFactor": 0.8
      },
      "doubleSided": false
    },
    {
      "name": "sub_nose_mat",
      "pbrMetallicRoughness": {
        "baseColorFactor": [
          0.12,
          0.18,
          0.22,
          1.0
        ],
        "metallicFactor": 0.1,
        "roughnessFactor": 0.8
      },
      "doubleSided": false
    },
    {
      "name": "sub_tail_mat",
      "pbrMetallicRoughness": {
        "baseColorFactor": [
          0.12,
          0.18,
          0.22,
          1.0
        ],
        "metallicFactor": 0.1,
        "roughnessFactor": 0.8
      },
      "doubleSided": false
    },
    {
      "name": "sub_tower_mat",
      "pbrMetallicRoughness": {
        "baseColorFactor": [
          0.14,
          0.2,
          0.25,
          1.0
        ],
        "metallicFactor": 0.1,
        "roughnessFactor": 0.8
      },
      "doubleSided": false
    },
    {
      "name": "sub_periscope_mat",
      "pbrMetallicRoughness": {
        "baseColorFactor": [
          0.2,
          0.22,
          0.2,
          1.0
        ],
        "metallicFactor": 0.1,
        "roughnessFactor": 0.8
      },
      "doubleSided": false
    },
    {
      "name": "sub_plane_F_mat",
      "pbrMetallicRoughness": {
        "baseColorFactor": [
          0.12,
          0.18,
          0.22,
          1.0
        ],
        "metallicFactor": 0.1,
        "roughnessFactor": 0.8
      },
      "doubleSided": false
    },
    {
      "name": "sub_plane_A_mat",
      "pbrMetallicRoughness": {
        "baseColorFactor": [
          0.12,
          0.18,
          0.22,
          1.0
        ],
        "metallicFactor": 0.1,
        "roughnessFactor": 0.8
      },
      "doubleSided": false
    },
    {
      "name": "sub_rudder_mat",
      "pbrMetallicRoughness": {
        "baseColorFactor": [
          0.12,
          0.18,
          0.22,
          1.0
        ],
        "metallicFactor": 0.1,
        "roughnessFactor": 0.8
      },
      "doubleSided": false
    }
  ],
  "accessors": [
    {
      "bufferView": 0,
      "byteOffset": 0,
      "componentType": 5126,
      "count": 62,
      "type": "VEC3",
      "min": [
        -0.85,
        -2.75,
        -0.8083980388508806
      ],
      "max": [
        0.85,
        2.75,
        0.8083980388508806
      ]
    },
    {
      "bufferView": 1,
      "byteOffset": 0,
      "componentType": 5126,
      "count": 62,
      "type": "VEC3"
    },
    {
      "bufferView": 2,
      "byteOffset": 0,
      "componentType": 5123,
      "count": 120,
      "type": "SCALAR"
    },
    {
      "bufferView": 3,
      "byteOffset": 0,
      "componentType": 5126,
      "count": 62,
      "type": "VEC3",
      "min": [
        -0.85,
        -1.0,
        -0.8083980388508806
      ],
      "max": [
        0.85,
        1.0,
        0.8083980388508806
      ]
    },
    {
      "bufferView": 4,
      "byteOffset": 0,
      "componentType": 5126,
      "count": 62,
      "type": "VEC3"
    },
    {
      "bufferView": 5,
      "byteOffset": 0,
      "componentType": 5123,
      "count": 120,
      "type": "SCALAR"
    },
    {
      "bufferView": 6,
      "byteOffset": 0,
      "componentType": 5126,
      "count": 62,
      "type": "VEC3",
      "min": [
        -0.85,
        -1.1,
        -0.8083980388508806
      ],
      "max": [
        0.85,
        1.1,
        0.8083980388508806
      ]
    },
    {
      "bufferView": 7,
      "byteOffset": 0,
      "componentType": 5126,
      "count": 62,
      "type": "VEC3"
    },
    {
      "bufferView": 8,
      "byteOffset": 0,
      "componentType": 5123,
      "count": 120,
      "type": "SCALAR"
    },
    {
      "bufferView": 9,
      "byteOffset": 0,
      "componentType": 5126,
      "count": 24,
      "type": "VEC3",
      "min": [
        -0.35,
        -0.7,
        -0.5
      ],
      "max": [
        0.35,
        0.7,
        0.5
      ]
    },
    {
      "bufferView": 10,
      "byteOffset": 0,
      "componentType": 5126,
      "count": 24,
      "type": "VEC3"
    },
    {
      "bufferView": 11,
      "byteOffset": 0,
      "componentType": 5123,
      "count": 36,
      "type": "SCALAR"
    },
    {
      "bufferView": 12,
      "byteOffset": 0,
      "componentType": 5126,
      "count": 32,
      "type": "VEC3",
      "min": [
        -0.04045084971874738,
        -0.9,
        -0.047552825814757685
      ],
      "max": [
        0.05,
        0.9,
        0.04755282581475768
      ]
    },
    {
      "bufferView": 13,
      "byteOffset": 0,
      "componentType": 5126,
      "count": 32,
      "type": "VEC3"
    },
    {
      "bufferView": 14,
      "byteOffset": 0,
      "componentType": 5123,
      "count": 60,
      "type": "SCALAR"
    },
    {
      "bufferView": 15,
      "byteOffset": 0,
      "componentType": 5126,
      "count": 24,
      "type": "VEC3",
      "min": [
        -0.9,
        -0.06,
        -0.175
      ],
      "max": [
        0.9,
        0.06,
        0.175
      ]
    },
    {
      "bufferView": 16,
      "byteOffset": 0,
      "componentType": 5126,
      "count": 24,
      "type": "VEC3"
    },
    {
      "bufferView": 17,
      "byteOffset": 0,
      "componentType": 5123,
      "count": 36,
      "type": "SCALAR"
    },
    {
      "bufferView": 18,
      "byteOffset": 0,
      "componentType": 5126,
      "count": 24,
      "type": "VEC3",
      "min": [
        -1.1,
        -0.06,
        -0.175
      ],
      "max": [
        1.1,
        0.06,
        0.175
      ]
    },
    {
      "bufferView": 19,
      "byteOffset": 0,
      "componentType": 5126,
      "count": 24,
      "type": "VEC3"
    },
    {
      "bufferView": 20,
      "byteOffset": 0,
      "componentType": 5123,
      "count": 36,
      "type": "SCALAR"
    },
    {
      "bufferView": 21,
      "byteOffset": 0,
      "componentType": 5126,
      "count": 24,
      "type": "VEC3",
      "min": [
        -0.06,
        -0.4,
        -0.275
      ],
      "max": [
        0.06,
        0.4,
        0.275
      ]
    },
    {
      "bufferView": 22,
      "byteOffset": 0,
      "componentType": 5126,
      "count": 24,
      "type": "VEC3"
    },
    {
      "bufferView": 23,
      "byteOffset": 0,
      "componentType": 5123,
      "count": 36,
      "type": "SCALAR"
    }
  ],
  "bufferViews": [
    {
      "buffer": 0,
      "byteOffset": 0,
      "byteLength": 744
    },
    {
      "buffer": 0,
      "byteOffset": 744,
      "byteLength": 744
    },
    {
      "buffer": 0,
      "byteOffset": 1488,
      "byteLength": 240
    },
    {
      "buffer": 0,
      "byteOffset": 1728,
      "byteLength": 744
    },
    {
      "buffer": 0,
      "byteOffset": 2472,
      "byteLength": 744
    },
    {
      "buffer": 0,
      "byteOffset": 3216,
      "byteLength": 240
    },
    {
      "buffer": 0,
      "byteOffset": 3456,
      "byteLength": 744
    },
    {
      "buffer": 0,
      "byteOffset": 4200,
      "byteLength": 744
    },
    {
      "buffer": 0,
      "byteOffset": 4944,
      "byteLength": 240
    },
    {
      "buffer": 0,
      "byteOffset": 5184,
      "byteLength": 288
    },
    {
      "buffer": 0,
      "byteOffset": 5472,
      "byteLength": 288
    },
    {
      "buffer": 0,
      "byteOffset": 5760,
      "byteLength": 72
    },
    {
      "buffer": 0,
      "byteOffset": 5832,
      "byteLength": 384
    },
    {
      "buffer": 0,
      "byteOffset": 6216,
      "byteLength": 384
    },
    {
      "buffer": 0,
      "byteOffset": 6600,
      "byteLength": 120
    },
    {
      "buffer": 0,
      "byteOffset": 6720,
      "byteLength": 288
    },
    {
      "buffer": 0,
      "byteOffset": 7008,
      "byteLength": 288
    },
    {
      "buffer": 0,
      "byteOffset": 7296,
      "byteLength": 72
    },
    {
      "buffer": 0,
      "byteOffset": 7368,
      "byteLength": 288
    },
    {
      "buffer": 0,
      "byteOffset": 7656,
      "byteLength": 288
    },
    {
      "buffer": 0,
      "byteOffset": 7944,
      "byteLength": 72
    },
    {
      "buffer": 0,
      "byteOffset": 8016,
      "byteLength": 288
    },
    {
      "buffer": 0,
      "byteOffset": 8304,
      "byteLength": 288
    },
    {
      "buffer": 0,
      "byteOffset": 8592,
      "byteLength": 72
    }
  ],
  "buffers": [
    {
      "byteLength": 8664,
      "uri": "data:application/octet-stream;base64,"
    }
  ]
}