{
	"asset":{
		"generator":"Khronos glTF Blender I/O v5.0.21",
		"version":"2.0"
	},
	"scene":0,
	"scenes":[
		{
			"name":"Scene",
			"nodes":[
				0
			]
		}
	],
	"nodes":[
		{
			"mesh":0,
			"name":"Mesh_0"
		}
	],
	"materials":[
		{
			"doubleSided":true,
			"name":"Material_0",
			"pbrMetallicRoughness":{
				"baseColorTexture":{
					"index":0
				},
				"metallicFactor":0,
				"roughnessFactor":0.800000011920929
			}
		}
	],
	"meshes":[
		{
			"name":"Mesh_0",
			"primitives":[
				{
					"attributes":{
						"POSITION":0,
						"NORMAL":1,
						"TEXCOORD_0":2
					},
					"indices":3,
					"material":0
				}
			]
		}
	],
	"textures":[
		{
			"sampler":0,
			"source":0
		}
	],
	"images":[
		{
			"mimeType":"image/jpeg",
			"name":"Image_0",
			"uri":"Image_0.jpg"
		}
	],
	"accessors":[
		{
			"bufferView":0,
			"componentType":5126,
			"count":52687,
			"max":[
				0.709086000919342,
				0.2880910038948059,
				0.673454999923706
			],
			"min":[
				-0.7109559774398804,
				-0.3139140009880066,
				-0.6725519895553589
			],
			"type":"VEC3"
		},
		{
			"bufferView":1,
			"componentType":5126,
			"count":52687,
			"type":"VEC3"
		},
		{
			"bufferView":2,
			"componentType":5126,
			"count":52687,
			"type":"VEC2"
		},
		{
			"bufferView":3,
			"componentType":5123,
			"count":273627,
			"type":"SCALAR"
		}
	],
	"bufferViews":[
		{
			"buffer":0,
			"byteLength":632244,
			"byteOffset":0,
			"target":34962
		},
		{
			"buffer":0,
			"byteLength":632244,
			"byteOffset":632244,
			"target":34962
		},
		{
			"buffer":0,
			"byteLength":421496,
			"byteOffset":1264488,
			"target":34962
		},
		{
			"buffer":0,
			"byteLength":547254,
			"byteOffset":1685984,
			"target":34963
		}
	],
	"samplers":[
		{
			"magFilter":9729,
			"minFilter":9987
		}
	],
	"buffers":[
		{
			"byteLength":2233240,
			"uri":"test.bin"
		}
	]
}
