{
  "asset": {
    "version": "2.0",
    "generator": "MetalThrone gen_gltf.py"
  },
  "scene": 0,
  "scenes": [
    {
      "nodes": [
        0,
        1,
        2,
        3,
        4
      ]
    }
  ],
  "nodes": [
    {
      "name": "drone_body",
      "mesh": 0,
      "translation": [
        0,
        0,
        0
      ],
      "rotation": [
        0,
        0,
        0,
        1
      ],
      "scale": [
        1,
        1,
        1
      ]
    },
    {
      "name": "drone_rotor_0",
      "mesh": 1,
      "translation": [
        0.5,
        0.05,
        0.5
      ],
      "rotation": [
        0,
        0,
        0,
        1
      ],
      "scale": [
        1,
        1,
        1
      ]
    },
    {
      "name": "drone_rotor_1",
      "mesh": 2,
      "translation": [
        -0.5,
        0.05,
        0.5
      ],
      "rotation": [
        0,
        0,
        0,
        1
      ],
      "scale": [
        1,
        1,
        1
      ]
    },
    {
      "name": "drone_rotor_2",
      "mesh": 3,
      "translation": [
        0.5,
        0.05,
        -0.5
      ],
      "rotation": [
        0,
        0,
        0,
        1
      ],
      "scale": [
        1,
        1,
        1
      ]
    },
    {
      "name": "drone_rotor_3",
      "mesh": 4,
      "translation": [
        -0.5,
        0.05,
        -0.5
      ],
      "rotation": [
        0,
        0,
        0,
        1
      ],
      "scale": [
        1,
        1,
        1
      ]
    }
  ],
  "meshes": [
    {
      "name": "drone_body",
      "primitives": [
        {
          "attributes": {
            "POSITION": 0,
            "NORMAL": 1
          },
          "indices": 2,
          "material": 0,
          "mode": 4
        }
      ]
    },
    {
      "name": "drone_rotor_0",
      "primitives": [
        {
          "attributes": {
            "POSITION": 3,
            "NORMAL": 4
          },
          "indices": 5,
          "material": 1,
          "mode": 4
        }
      ]
    },
    {
      "name": "drone_rotor_1",
      "primitives": [
        {
          "attributes": {
            "POSITION": 6,
            "NORMAL": 7
          },
          "indices": 8,
          "material": 2,
          "mode": 4
        }
      ]
    },
    {
      "name": "drone_rotor_2",
      "primitives": [
        {
          "attributes": {
            "POSITION": 9,
            "NORMAL": 10
          },
          "indices": 11,
          "material": 3,
          "mode": 4
        }
      ]
    },
    {
      "name": "drone_rotor_3",
      "primitives": [
        {
          "attributes": {
            "POSITION": 12,
            "NORMAL": 13
          },
          "indices": 14,
          "material": 4,
          "mode": 4
        }
      ]
    }
  ],
  "materials": [
    {
      "name": "drone_body_mat",
      "pbrMetallicRoughness": {
        "baseColorFactor": [
          0.9,
          0.15,
          0.1,
          1.0
        ],
        "metallicFactor": 0.1,
        "roughnessFactor": 0.8
      },
      "doubleSided": false
    },
    {
      "name": "drone_rotor_0_mat",
      "pbrMetallicRoughness": {
        "baseColorFactor": [
          0.2,
          0.2,
          0.2,
          1.0
        ],
        "metallicFactor": 0.1,
        "roughnessFactor": 0.8
      },
      "doubleSided": false
    },
    {
      "name": "drone_rotor_1_mat",
      "pbrMetallicRoughness": {
        "baseColorFactor": [
          0.2,
          0.2,
          0.2,
          1.0
        ],
        "metallicFactor": 0.1,
        "roughnessFactor": 0.8
      },
      "doubleSided": false
    },
    {
      "name": "drone_rotor_2_mat",
      "pbrMetallicRoughness": {
        "baseColorFactor": [
          0.2,
          0.2,
          0.2,
          1.0
        ],
        "metallicFactor": 0.1,
        "roughnessFactor": 0.8
      },
      "doubleSided": false
    },
    {
      "name": "drone_rotor_3_mat",
      "pbrMetallicRoughness": {
        "baseColorFactor": [
          0.2,
          0.2,
          0.2,
          1.0
        ],
        "metallicFactor": 0.1,
        "roughnessFactor": 0.8
      },
      "doubleSided": false
    }
  ],
  "accessors": [
    {
      "bufferView": 0,
      "byteOffset": 0,
      "componentType": 5126,
      "count": 24,
      "type": "VEC3",
      "min": [
        -0.4,
        -0.125,
        -0.4
      ],
      "max": [
        0.4,
        0.125,
        0.4
      ]
    },
    {
      "bufferView": 1,
      "byteOffset": 0,
      "componentType": 5126,
      "count": 24,
      "type": "VEC3"
    },
    {
      "bufferView": 2,
      "byteOffset": 0,
      "componentType": 5123,
      "count": 36,
      "type": "SCALAR"
    },
    {
      "bufferView": 3,
      "byteOffset": 0,
      "componentType": 5126,
      "count": 38,
      "type": "VEC3",
      "min": [
        -0.2,
        -0.025,
        -0.17320508075688773
      ],
      "max": [
        0.2,
        0.025,
        0.17320508075688776
      ]
    },
    {
      "bufferView": 4,
      "byteOffset": 0,
      "componentType": 5126,
      "count": 38,
      "type": "VEC3"
    },
    {
      "bufferView": 5,
      "byteOffset": 0,
      "componentType": 5123,
      "count": 72,
      "type": "SCALAR"
    },
    {
      "bufferView": 6,
      "byteOffset": 0,
      "componentType": 5126,
      "count": 38,
      "type": "VEC3",
      "min": [
        -0.2,
        -0.025,
        -0.17320508075688773
      ],
      "max": [
        0.2,
        0.025,
        0.17320508075688776
      ]
    },
    {
      "bufferView": 7,
      "byteOffset": 0,
      "componentType": 5126,
      "count": 38,
      "type": "VEC3"
    },
    {
      "bufferView": 8,
      "byteOffset": 0,
      "componentType": 5123,
      "count": 72,
      "type": "SCALAR"
    },
    {
      "bufferView": 9,
      "byteOffset": 0,
      "componentType": 5126,
      "count": 38,
      "type": "VEC3",
      "min": [
        -0.2,
        -0.025,
        -0.17320508075688773
      ],
      "max": [
        0.2,
        0.025,
        0.17320508075688776
      ]
    },
    {
      "bufferView": 10,
      "byteOffset": 0,
      "componentType": 5126,
      "count": 38,
      "type": "VEC3"
    },
    {
      "bufferView": 11,
      "byteOffset": 0,
      "componentType": 5123,
      "count": 72,
      "type": "SCALAR"
    },
    {
      "bufferView": 12,
      "byteOffset": 0,
      "componentType": 5126,
      "count": 38,
      "type": "VEC3",
      "min": [
        -0.2,
        -0.025,
        -0.17320508075688773
      ],
      "max": [
        0.2,
        0.025,
        0.17320508075688776
      ]
    },
    {
      "bufferView": 13,
      "byteOffset": 0,
      "componentType": 5126,
      "count": 38,
      "type": "VEC3"
    },
    {
      "bufferView": 14,
      "byteOffset": 0,
      "componentType": 5123,
      "count": 72,
      "type": "SCALAR"
    }
  ],
  "bufferViews": [
    {
      "buffer": 0,
      "byteOffset": 0,
      "byteLength": 288
    },
    {
      "buffer": 0,
      "byteOffset": 288,
      "byteLength": 288
    },
    {
      "buffer": 0,
      "byteOffset": 576,
      "byteLength": 72
    },
    {
      "buffer": 0,
      "byteOffset": 648,
      "byteLength": 456
    },
    {
      "buffer": 0,
      "byteOffset": 1104,
      "byteLength": 456
    },
    {
      "buffer": 0,
      "byteOffset": 1560,
      "byteLength": 144
    },
    {
      "buffer": 0,
      "byteOffset": 1704,
      "byteLength": 456
    },
    {
      "buffer": 0,
      "byteOffset": 2160,
      "byteLength": 456
    },
    {
      "buffer": 0,
      "byteOffset": 2616,
      "byteLength": 144
    },
    {
      "buffer": 0,
      "byteOffset": 2760,
      "byteLength": 456
    },
    {
      "buffer": 0,
      "byteOffset": 3216,
      "byteLength": 456
    },
    {
      "buffer": 0,
      "byteOffset": 3672,
      "byteLength": 144
    },
    {
      "buffer": 0,
      "byteOffset": 3816,
      "byteLength": 456
    },
    {
      "buffer": 0,
      "byteOffset": 4272,
      "byteLength": 456
    },
    {
      "buffer": 0,
      "byteOffset": 4728,
      "byteLength": 144
    }
  ],
  "buffers": [
    {
      "byteLength": 4872,
      "uri": "data:application/octet-stream;base64,"
    }
  ]
}