{
  "asset": {
    "version": "2.0",
    "generator": "MetalThrone gen_gltf.py"
  },
  "scene": 0,
  "scenes": [
    {
      "nodes": [
        0,
        1,
        2,
        3,
        4
      ]
    }
  ],
  "nodes": [
    {
      "name": "car_body",
      "mesh": 0,
      "translation": [
        0,
        0.35,
        0
      ],
      "rotation": [
        0,
        0,
        0,
        1
      ],
      "scale": [
        1,
        1,
        1
      ]
    },
    {
      "name": "car_wheel_0",
      "mesh": 1,
      "translation": [
        0.9,
        0.05,
        1.0
      ],
      "rotation": [
        0,
        0,
        0.7071067811865475,
        0.7071067811865476
      ],
      "scale": [
        1,
        1,
        1
      ]
    },
    {
      "name": "car_wheel_1",
      "mesh": 2,
      "translation": [
        -0.9,
        0.05,
        1.0
      ],
      "rotation": [
        0,
        0,
        0.7071067811865475,
        0.7071067811865476
      ],
      "scale": [
        1,
        1,
        1
      ]
    },
    {
      "name": "car_wheel_2",
      "mesh": 3,
      "translation": [
        0.9,
        0.05,
        -1.0
      ],
      "rotation": [
        0,
        0,
        0.7071067811865475,
        0.7071067811865476
      ],
      "scale": [
        1,
        1,
        1
      ]
    },
    {
      "name": "car_wheel_3",
      "mesh": 4,
      "translation": [
        -0.9,
        0.05,
        -1.0
      ],
      "rotation": [
        0,
        0,
        0.7071067811865475,
        0.7071067811865476
      ],
      "scale": [
        1,
        1,
        1
      ]
    }
  ],
  "meshes": [
    {
      "name": "car_body",
      "primitives": [
        {
          "attributes": {
            "POSITION": 0,
            "NORMAL": 1
          },
          "indices": 2,
          "material": 0,
          "mode": 4
        }
      ]
    },
    {
      "name": "car_wheel_0",
      "primitives": [
        {
          "attributes": {
            "POSITION": 3,
            "NORMAL": 4
          },
          "indices": 5,
          "material": 1,
          "mode": 4
        }
      ]
    },
    {
      "name": "car_wheel_1",
      "primitives": [
        {
          "attributes": {
            "POSITION": 6,
            "NORMAL": 7
          },
          "indices": 8,
          "material": 2,
          "mode": 4
        }
      ]
    },
    {
      "name": "car_wheel_2",
      "primitives": [
        {
          "attributes": {
            "POSITION": 9,
            "NORMAL": 10
          },
          "indices": 11,
          "material": 3,
          "mode": 4
        }
      ]
    },
    {
      "name": "car_wheel_3",
      "primitives": [
        {
          "attributes": {
            "POSITION": 12,
            "NORMAL": 13
          },
          "indices": 14,
          "material": 4,
          "mode": 4
        }
      ]
    }
  ],
  "materials": [
    {
      "name": "car_body_mat",
      "pbrMetallicRoughness": {
        "baseColorFactor": [
          0.1,
          0.3,
          0.9,
          1.0
        ],
        "metallicFactor": 0.1,
        "roughnessFactor": 0.8
      },
      "doubleSided": false
    },
    {
      "name": "car_wheel_0_mat",
      "pbrMetallicRoughness": {
        "baseColorFactor": [
          0.15,
          0.15,
          0.15,
          1.0
        ],
        "metallicFactor": 0.1,
        "roughnessFactor": 0.8
      },
      "doubleSided": false
    },
    {
      "name": "car_wheel_1_mat",
      "pbrMetallicRoughness": {
        "baseColorFactor": [
          0.15,
          0.15,
          0.15,
          1.0
        ],
        "metallicFactor": 0.1,
        "roughnessFactor": 0.8
      },
      "doubleSided": false
    },
    {
      "name": "car_wheel_2_mat",
      "pbrMetallicRoughness": {
        "baseColorFactor": [
          0.15,
          0.15,
          0.15,
          1.0
        ],
        "metallicFactor": 0.1,
        "roughnessFactor": 0.8
      },
      "doubleSided": false
    },
    {
      "name": "car_wheel_3_mat",
      "pbrMetallicRoughness": {
        "baseColorFactor": [
          0.15,
          0.15,
          0.15,
          1.0
        ],
        "metallicFactor": 0.1,
        "roughnessFactor": 0.8
      },
      "doubleSided": false
    }
  ],
  "accessors": [
    {
      "bufferView": 0,
      "byteOffset": 0,
      "componentType": 5126,
      "count": 24,
      "type": "VEC3",
      "min": [
        -0.8,
        -0.25,
        -1.2
      ],
      "max": [
        0.8,
        0.25,
        1.2
      ]
    },
    {
      "bufferView": 1,
      "byteOffset": 0,
      "componentType": 5126,
      "count": 24,
      "type": "VEC3"
    },
    {
      "bufferView": 2,
      "byteOffset": 0,
      "componentType": 5123,
      "count": 36,
      "type": "SCALAR"
    },
    {
      "bufferView": 3,
      "byteOffset": 0,
      "componentType": 5126,
      "count": 62,
      "type": "VEC3",
      "min": [
        -0.275,
        -0.1,
        -0.2615405419811673
      ],
      "max": [
        0.275,
        0.1,
        0.2615405419811673
      ]
    },
    {
      "bufferView": 4,
      "byteOffset": 0,
      "componentType": 5126,
      "count": 62,
      "type": "VEC3"
    },
    {
      "bufferView": 5,
      "byteOffset": 0,
      "componentType": 5123,
      "count": 120,
      "type": "SCALAR"
    },
    {
      "bufferView": 6,
      "byteOffset": 0,
      "componentType": 5126,
      "count": 62,
      "type": "VEC3",
      "min": [
        -0.275,
        -0.1,
        -0.2615405419811673
      ],
      "max": [
        0.275,
        0.1,
        0.2615405419811673
      ]
    },
    {
      "bufferView": 7,
      "byteOffset": 0,
      "componentType": 5126,
      "count": 62,
      "type": "VEC3"
    },
    {
      "bufferView": 8,
      "byteOffset": 0,
      "componentType": 5123,
      "count": 120,
      "type": "SCALAR"
    },
    {
      "bufferView": 9,
      "byteOffset": 0,
      "componentType": 5126,
      "count": 62,
      "type": "VEC3",
      "min": [
        -0.275,
        -0.1,
        -0.2615405419811673
      ],
      "max": [
        0.275,
        0.1,
        0.2615405419811673
      ]
    },
    {
      "bufferView": 10,
      "byteOffset": 0,
      "componentType": 5126,
      "count": 62,
      "type": "VEC3"
    },
    {
      "bufferView": 11,
      "byteOffset": 0,
      "componentType": 5123,
      "count": 120,
      "type": "SCALAR"
    },
    {
      "bufferView": 12,
      "byteOffset": 0,
      "componentType": 5126,
      "count": 62,
      "type": "VEC3",
      "min": [
        -0.275,
        -0.1,
        -0.2615405419811673
      ],
      "max": [
        0.275,
        0.1,
        0.2615405419811673
      ]
    },
    {
      "bufferView": 13,
      "byteOffset": 0,
      "componentType": 5126,
      "count": 62,
      "type": "VEC3"
    },
    {
      "bufferView": 14,
      "byteOffset": 0,
      "componentType": 5123,
      "count": 120,
      "type": "SCALAR"
    }
  ],
  "bufferViews": [
    {
      "buffer": 0,
      "byteOffset": 0,
      "byteLength": 288
    },
    {
      "buffer": 0,
      "byteOffset": 288,
      "byteLength": 288
    },
    {
      "buffer": 0,
      "byteOffset": 576,
      "byteLength": 72
    },
    {
      "buffer": 0,
      "byteOffset": 648,
      "byteLength": 744
    },
    {
      "buffer": 0,
      "byteOffset": 1392,
      "byteLength": 744
    },
    {
      "buffer": 0,
      "byteOffset": 2136,
      "byteLength": 240
    },
    {
      "buffer": 0,
      "byteOffset": 2376,
      "byteLength": 744
    },
    {
      "buffer": 0,
      "byteOffset": 3120,
      "byteLength": 744
    },
    {
      "buffer": 0,
      "byteOffset": 3864,
      "byteLength": 240
    },
    {
      "buffer": 0,
      "byteOffset": 4104,
      "byteLength": 744
    },
    {
      "buffer": 0,
      "byteOffset": 4848,
      "byteLength": 744
    },
    {
      "buffer": 0,
      "byteOffset": 5592,
      "byteLength": 240
    },
    {
      "buffer": 0,
      "byteOffset": 5832,
      "byteLength": 744
    },
    {
      "buffer": 0,
      "byteOffset": 6576,
      "byteLength": 744
    },
    {
      "buffer": 0,
      "byteOffset": 7320,
      "byteLength": 240
    }
  ],
  "buffers": [
    {
      "byteLength": 7560,
      "uri": "data:application/octet-stream;base64,"
    }
  ]
}